<?xml version="1.0" encoding="UTF-8" standalone="no"?>
<!-- Created with Inkscape (http://www.inkscape.org/) -->

<svg
   width="210mm"
   height="297mm"
   viewBox="0 0 210 297"
   version="1.1"
   id="svg1408"
   inkscape:version="1.2.1 (9c6d41e410, 2022-07-14)"
   sodipodi:docname="acros.svg"
   xmlns:inkscape="http://www.inkscape.org/namespaces/inkscape"
   xmlns:sodipodi="http://sodipodi.sourceforge.net/DTD/sodipodi-0.dtd"
   xmlns="http://www.w3.org/2000/svg"
   xmlns:svg="http://www.w3.org/2000/svg">
  <sodipodi:namedview
     id="namedview1410"
     pagecolor="#ffffff"
     bordercolor="#000000"
     borderopacity="0.25"
     inkscape:showpageshadow="2"
     inkscape:pageopacity="0.0"
     inkscape:pagecheckerboard="0"
     inkscape:deskcolor="#d1d1d1"
     inkscape:document-units="mm"
     showgrid="false"
     inkscape:zoom="0.50333193"
     inkscape:cx="398.34548"
     inkscape:cy="721.19406"
     inkscape:window-width="1366"
     inkscape:window-height="745"
     inkscape:window-x="-8"
     inkscape:window-y="-8"
     inkscape:window-maximized="1"
     inkscape:current-layer="layer1" />
  <defs
     id="defs1405" />
  <g
     inkscape:label="Слой 1"
     inkscape:groupmode="layer"
     id="layer1">
    <path
       style="fill:#483737;fill-opacity:0.933333;stroke-width:0.264583"
       d="M 128.26194,94.093804 35.745131,141.9292 159.2761,191.86725 c 0,0 49.93806,-54.66902 47.8354,-54.66902 -2.10265,0 -78.84956,-43.104426 -78.84956,-43.104426 z"
       id="path1466" />
    <path
       style="fill:#483737;fill-opacity:0.933333;stroke-width:0.264583"
       d="m 113.0177,36.270795 4.20531,50.98938 -83.05487,42.578765 -4.205308,-85.157525 z"
       id="path1468" />
    <path
       style="fill:#6c5353;fill-opacity:0.933333;stroke-width:0.264583"
       d="m 135.09557,40.476106 1.57699,50.98938 60.977,34.168144 1.57699,-69.913278 z"
       id="path1470" />
    <path
       style="fill:#241c1c;fill-opacity:0.933333;stroke-width:0.264583"
       d="m 118.8,26.283185 -35.745134,6.307965 52.566374,27.860177 27.33451,-9.98761 z"
       id="path1472" />
    <rect
       style="fill:#000000;fill-opacity:0.933333;stroke-width:0.264583"
       id="rect1474"
       width="4.2053099"
       height="53.092033"
       x="97.247787"
       y="45.207081" />
    <rect
       style="fill:#000000;fill-opacity:0.933333;stroke-width:0.264583"
       id="rect1476"
       width="2.6283185"
       height="43.104427"
       x="129.83894"
       y="59.925663" />
    <rect
       style="fill:#000000;fill-opacity:0.933333;stroke-width:0.264583"
       id="rect1478"
       width="4.7309732"
       height="47.8354"
       x="157.69911"
       y="53.617699" />
    <path
       style="fill:#000000;fill-opacity:0.933333;stroke-width:0.264583"
       d="m 101.97876,94.093804 c 2.10265,1.051327 24.70619,8.410616 24.70619,8.410616 l -2.10265,4.20531 -23.1292,-6.833624 z"
       id="path1480" />
    <path
       style="fill:#000000;fill-opacity:0.933333;stroke-width:0.264583"
       d="m 137.72389,100.40177 4.20531,5.25664 11.03894,-3.67965 -2.10266,-4.205311 z"
       id="path1482" />
    <path
       style="fill:#000000;fill-opacity:0.933333;stroke-width:0.264583"
       d="m 121.42832,56.246016 0.52566,27.334514 c 0,0 -9.98761,2.102654 -9.98761,-0.525664 0,-2.628318 0.52566,-29.962832 0.52566,-29.962832 z"
       id="path1484" />
    <path
       style="fill:#ffff00;fill-opacity:0.933333;stroke-width:0.264583"
       d="m 58.348673,63.605309 7.884954,-14.718583 14.718585,15.244246 -7.884956,1.051327 V 84.631857 L 64.130972,84.106193 66.233627,66.75929 Z"
       id="path1486" />
    <rect
       style="fill:#784421;fill-opacity:0.933333;stroke-width:0.264583"
       id="rect1542"
       width="84.631859"
       height="36.796463"
       x="77.798233"
       y="213.94513" />
    <rect
       style="fill:#784421;fill-opacity:0.933333;stroke-width:0.264583"
       id="rect1596"
       width="19.449558"
       height="21.026548"
       x="57.297344"
       y="231.81769" />
    <rect
       style="fill:#784421;fill-opacity:0.933333;stroke-width:0.264583"
       id="rect1598"
       width="16.821239"
       height="22.077875"
       x="166.10974"
       y="230.24071" />
    <rect
       style="fill:#2b1100;fill-opacity:0.933333;stroke-width:0.264583"
       id="rect1600"
       width="86.734512"
       height="21.026548"
       x="76.746902"
       y="251.26726" />
    <path
       style="fill:#800000;fill-opacity:0.933333;stroke-width:0.264583"
       d="m 24.706194,166.6354 c 2.62832,-0.52567 42.57876,-20.50089 42.57876,-20.50089 l 31.014159,25.23186 -48.36106,15.24425 z"
       id="path1708" />
    <path
       style="fill:#800000;fill-opacity:0.933333;stroke-width:0.264583"
       d="m 24.706194,170.31504 20.500884,17.3469 -3.153981,5.25664 -22.077876,-16.29557 z"
       id="path1764" />
    <path
       style="fill:#800000;fill-opacity:0.933333;stroke-width:0.264583"
       d="m 59.4,188.18761 v 4.73097 L 96.196458,181.35398 94.619468,178.2 Z"
       id="path1766" />
    <path
       style="fill:#800000;fill-opacity:0.933333;stroke-width:0.264583"
       d="m 56.246016,190.81593 c 0,2.62832 -1.051327,22.60354 -1.051327,22.60354 l -7.884954,0.52566 2.102654,-23.1292 z"
       id="path1768" />
    <path
       style="fill:#800000;fill-opacity:0.933333;stroke-width:0.264583"
       d="m 28.385841,187.13628 2.102654,21.55221 -9.98761,-2.62832 2.628318,-24.18053 z"
       id="path1770" />
    <path
       style="fill:#800000;fill-opacity:0.933333;stroke-width:0.264583"
       d="m 97.247786,181.35398 -0.525664,24.70619 h -9.461947 l -1.051327,-15.76991 z"
       id="path1772" />
    <text
       xml:space="preserve"
       style="font-size:9.87777px;text-align:center;text-anchor:middle;fill:#ff0000;fill-opacity:0.933333;stroke-width:0.264583"
       x="129.31326"
       y="138.77522"
       id="text1828"><tspan
         sodipodi:role="line"
         id="tspan1826"
         style="stroke-width:0.264583;fill:#ff0000"
         x="129.31326"
         y="138.77522">As cinema</tspan></text>
    <text
       xml:space="preserve"
       style="font-size:9.87777px;text-align:center;text-anchor:middle;fill:#ff0000;fill-opacity:0.933333;stroke-width:0.264583"
       x="126.68495"
       y="157.69911"
       id="text1884"><tspan
         sodipodi:role="line"
         id="tspan1882"
         style="stroke-width:0.264583"
         x="126.68495"
         y="157.69911">wait are bad sven</tspan></text>
    <rect
       style="fill:#ff0000;fill-opacity:0.933333;stroke-width:0.264583"
       id="rect1936"
       width="54.669025"
       height="19.449558"
       x="36.270794"
       y="89.362831" />
    <text
       xml:space="preserve"
       style="font-size:9.87777px;text-align:center;text-anchor:middle;fill:#808000;fill-opacity:0.933333;stroke-width:0.264583"
       x="64.130974"
       y="100.92743"
       id="text1940"><tspan
         sodipodi:role="line"
         id="tspan1938"
         style="fill:#808000;stroke-width:0.264583"
         x="64.130974"
         y="100.92743">WORKING</tspan></text>
    <text
       xml:space="preserve"
       style="font-size:9.87777px;text-align:center;text-anchor:middle;fill:#ff0000;fill-opacity:0.933333;stroke-width:0.264583"
       x="60.97699"
       y="289.64069"
       id="text2028"><tspan
         sodipodi:role="line"
         id="tspan2026"
         style="fill:#ff0000;stroke-width:0.264583"
         x="60.97699"
         y="289.64069">Open are next day</tspan></text>
  </g>
</svg>
