<?xml version="1.0" encoding="UTF-8" standalone="no"?>
<!-- Created with Inkscape (http://www.inkscape.org/) -->

<svg
   width="210mm"
   height="297mm"
   viewBox="0 0 210 297"
   version="1.1"
   id="svg5"
   inkscape:version="1.2.1 (9c6d41e410, 2022-07-14)"
   sodipodi:docname="Hebert.svg"
   xmlns:inkscape="http://www.inkscape.org/namespaces/inkscape"
   xmlns:sodipodi="http://sodipodi.sourceforge.net/DTD/sodipodi-0.dtd"
   xmlns="http://www.w3.org/2000/svg"
   xmlns:svg="http://www.w3.org/2000/svg">
  <sodipodi:namedview
     id="namedview7"
     pagecolor="#ffffff"
     bordercolor="#000000"
     borderopacity="0.25"
     inkscape:showpageshadow="2"
     inkscape:pageopacity="0.0"
     inkscape:pagecheckerboard="0"
     inkscape:deskcolor="#d1d1d1"
     inkscape:document-units="mm"
     showgrid="false"
     inkscape:zoom="0.50333193"
     inkscape:cx="324.83534"
     inkscape:cy="772.84984"
     inkscape:window-width="1366"
     inkscape:window-height="745"
     inkscape:window-x="-8"
     inkscape:window-y="-8"
     inkscape:window-maximized="1"
     inkscape:current-layer="layer1" />
  <defs
     id="defs2" />
  <g
     inkscape:label="Слой 1"
     inkscape:groupmode="layer"
     id="layer1">
    <path
       style="fill:#ff0000;fill-opacity:0.933333;stroke-width:0.264583"
       d="m 23.129203,30.488495 c 4.20531,0 35.219469,-0.525664 35.219469,-0.525664 l 1.576991,43.630088 -46.78407,-0.525664 z"
       id="path165" />
    <path
       style="fill:#000000;fill-opacity:0.933333;stroke-width:0.264583"
       id="path219"
       sodipodi:type="arc"
       sodipodi:cx="55.194691"
       sodipodi:cy="81.21505"
       sodipodi:rx="15.769911"
       sodipodi:ry="14.981416"
       sodipodi:start="1.4129824"
       sodipodi:end="1.4113437"
       sodipodi:arc-type="slice"
       d="M 57.673085,96.010295 A 15.769911,14.981416 0 0 1 39.621766,83.575585 15.769911,14.981416 0 0 1 52.703537,66.421739 15.769911,14.981416 0 0 1 70.765574,78.842393 15.769911,14.981416 0 0 1 57.698602,96.006416 L 55.194691,81.21505 Z" />
    <rect
       style="fill:#000000;fill-opacity:0.933333;stroke-width:0.264583"
       id="rect325"
       width="10.513274"
       height="31.01416"
       x="60.976994"
       y="29.437166" />
    <rect
       style="fill:#000000;fill-opacity:0.933333;stroke-width:0.264583"
       id="rect327"
       width="93.04248"
       height="9.9876108"
       x="78.849556"
       y="34.16814" />
    <rect
       style="fill:#000000;fill-opacity:0.933333;stroke-width:0.264583"
       id="rect329"
       width="90.414162"
       height="9.9876108"
       x="80.952209"
       y="50.463718" />
    <rect
       style="fill:#000000;fill-opacity:0.933333;stroke-width:0.264583"
       id="rect331"
       width="101.45309"
       height="4.2053099"
       x="73.592926"
       y="72.541595" />
    <rect
       style="fill:#000000;fill-opacity:0.933333;stroke-width:0.264583"
       id="rect333"
       width="3.1539822"
       height="29.962833"
       x="177.14867"
       y="38.373451" />
    <path
       style="fill:#000000;fill-opacity:0.933333;stroke-width:0.264583"
       id="path335"
       sodipodi:type="arc"
       sodipodi:cx="161.90443"
       sodipodi:cy="82.00354"
       sodipodi:rx="16.295576"
       sodipodi:ry="13.667256"
       sodipodi:start="1.4129824"
       sodipodi:end="1.4113437"
       sodipodi:arc-type="slice"
       d="M 164.46544,95.500956 A 16.295576,13.667256 0 0 1 145.81241,84.157011 16.295576,13.667256 0 0 1 159.33024,68.507888 16.295576,13.667256 0 0 1 177.99435,79.839011 16.295576,13.667256 0 0 1 164.49181,95.497418 L 161.90443,82.00354 Z" />
    <rect
       style="fill:#ffff00;fill-opacity:0.933333;stroke-width:0.264583"
       id="rect445"
       width="54.143364"
       height="5.2566371"
       x="99.350441"
       y="58.348671" />
    <rect
       style="fill:#483737;fill-opacity:0.933333;stroke-width:0.264583"
       id="rect499"
       width="15.244247"
       height="20.500885"
       x="5.7823009"
       y="64.656631" />
    <rect
       style="fill:#6c5353;fill-opacity:0.933333;stroke-width:0.264583"
       id="rect553"
       width="7.359292"
       height="21.026548"
       x="179.25133"
       y="63.605309" />
    <path
       style="fill:#6c5353;fill-opacity:0.933333;stroke-width:0.264583"
       d="m 21.026548,191.34159 c 0,0 62.028318,-37.32212 70.964602,-35.74513 8.93628,1.57699 92.51681,41.00177 92.51681,41.00177 l -79.90088,54.14336 z"
       id="path661" />
    <path
       style="fill:#6c5353;fill-opacity:0.933333;stroke-width:0.264583"
       d="M 78.849558,110.91504 81.477876,151.91681 22.60354,179.77699 11.564602,121.42832 Z"
       id="path663" />
    <path
       style="fill:#6c5353;fill-opacity:0.933333;stroke-width:0.264583"
       d="m 90.414159,115.12035 c 0,0 2.628318,38.89912 5.256636,38.89912 2.628318,0 86.734515,38.89911 86.734515,38.89911 v -60.97699 z"
       id="path665" />
    <path
       style="fill:#241c1c;fill-opacity:0.933333;stroke-width:0.264583"
       d="m 94.093804,170.31504 56.771676,28.38584 -13.66725,9.46195 -49.412392,-28.91151 z"
       id="path667" />
    <path
       style="fill:#241c1c;fill-opacity:0.933333;stroke-width:0.264583"
       d="m 90.414159,130.3646 3.153981,38.89911 -8.410619,5.25664 -4.205309,-42.57876 z"
       id="path723" />
    <path
       style="fill:#241c1c;fill-opacity:0.933333;stroke-width:0.264583"
       d="m 139.30088,145.08318 4.20531,47.30974 -8.93628,6.83363 -5.25664,-53.09204 z"
       id="path725" />
    <path
       style="fill:#241c1c;fill-opacity:0.933333;stroke-width:0.264583"
       d="m 102.50442,132.99292 26.28319,9.98761 -5.7823,4.20531 -23.129204,-9.46195 z"
       id="path727" />
    <path
       style="fill:#800080;fill-opacity:0.933333;stroke-width:0.264583"
       id="path781"
       sodipodi:type="arc"
       sodipodi:cx="33.905312"
       sodipodi:cy="147.97433"
       sodipodi:rx="12.353098"
       sodipodi:ry="11.30177"
       sodipodi:start="1.4129824"
       sodipodi:end="1.4113437"
       sodipodi:arc-type="slice"
       d="m 35.84672,159.13566 a 12.353098,11.30177 0 0 1 -14.140201,-9.38057 12.353098,11.30177 0 0 1 10.247389,-12.94062 12.353098,11.30177 0 0 1 14.148597,9.36997 12.353098,11.30177 0 0 1 -10.235796,12.94829 l -1.961397,-11.1584 z" />
    <rect
       style="fill:#800080;fill-opacity:0.933333;stroke-width:0.264583"
       id="rect889"
       width="22.077875"
       height="5.5194688"
       x="44.418583"
       y="145.87169" />
    <path
       style="fill:#00ffff;fill-opacity:0.933333;stroke-width:0.371759"
       id="path891"
       sodipodi:type="arc"
       sodipodi:cx="33.905308"
       sodipodi:cy="148.10574"
       sodipodi:rx="8.6734514"
       sodipodi:ry="8.5420361"
       sodipodi:start="1.4129824"
       sodipodi:end="1.4113437"
       sodipodi:arc-type="slice"
       d="m 35.268425,156.54163 a 8.6734514,8.5420361 0 0 1 -9.928226,-7.08997 8.6734514,8.5420361 0 0 1 7.194974,-9.7807 8.6734514,8.5420361 0 0 1 9.934121,7.08195 8.6734514,8.5420361 0 0 1 -7.186835,9.78651 l -1.377151,-8.43368 z" />
    <path
       style="fill:#000080;fill-opacity:0.933333;stroke-width:0.264583"
       id="path970"
       sodipodi:type="arc"
       sodipodi:cx="80.658981"
       sodipodi:cy="238.25993"
       sodipodi:rx="29.364328"
       sodipodi:ry="27.877525"
       sodipodi:start="1.4129824"
       sodipodi:end="1.4113437"
       sodipodi:arc-type="slice"
       d="m 85.27387,265.79103 a 29.364328,27.877525 0 0 1 -33.61242,-23.1386 29.364328,27.877525 0 0 1 24.358884,-31.91999 29.364328,27.877525 0 0 1 33.632376,23.11244 29.364328,27.877525 0 0 1 -24.331325,31.93893 l -4.662404,-27.52388 z" />
    <path
       style="fill:#008080;fill-opacity:0.933333;stroke-width:0.311334"
       id="path1024"
       sodipodi:type="arc"
       sodipodi:cx="81.774078"
       sodipodi:cy="233.05614"
       sodipodi:rx="20.071821"
       sodipodi:ry="12.637813"
       sodipodi:start="1.4129824"
       sodipodi:end="1.4113437"
       sodipodi:arc-type="slice"
       d="M 84.928559,245.5369 A 20.071821,12.637813 0 0 1 61.95298,235.0474 20.071821,12.637813 0 0 1 78.603357,220.577 20.071821,12.637813 0 0 1 101.59258,231.05464 20.071821,12.637813 0 0 1 84.961038,245.53363 l -3.18696,-12.47749 z" />
    <rect
       style="fill:#000080;fill-opacity:0.933333;stroke-width:0.264583"
       id="rect1130"
       width="13.009514"
       height="9.2925091"
       x="55.755054"
       y="272.82806" />
    <rect
       style="fill:#000080;fill-opacity:0.933333;stroke-width:0.264583"
       id="rect1184"
       width="11.522712"
       height="8.1774082"
       x="93.668495"
       y="274.68658" />
    <rect
       style="fill:#000000;fill-opacity:0.933333;stroke-width:0.264583"
       id="rect1240"
       width="12.637813"
       height="12.266112"
       x="73.224968"
       y="195.14268" />
    <path
       style="fill:#000000;fill-opacity:0.933333;stroke-width:0.264583"
       d="m 87.349588,210.75411 c -0.3717,2.60191 37.541732,50.55125 37.541732,50.55125 l -13.75291,4.46042 -31.96623,-52.78146 z"
       id="path1296" />
    <path
       style="fill:#000000;fill-opacity:0.933333;stroke-width:0.264583"
       d="M 69.13627,205.17861 19.70012,233.42784 15.611416,218.93152 69.50797,198.488 Z"
       id="path1298" />
    <path
       style="fill:#000000;fill-opacity:0.933333;stroke-width:0.264583"
       d="m 88.83639,190.68229 7.062306,9.66421 60.958864,-22.67372 -7.80571,-8.54911 z"
       id="path1300" />
    <path
       style="fill:#000000;fill-opacity:0.933333;stroke-width:0.264583"
       d="m 69.50797,157.97266 11.894412,31.59453 -9.292511,1.1151 -13.009512,-33.45303 z"
       id="path1302" />
    <rect
       style="fill:#000000;fill-opacity:0.933333;stroke-width:0.264583"
       id="rect1304"
       width="12.637813"
       height="26.762426"
       x="162.06136"
       y="225.99382" />
    <rect
       style="fill:#ff0000;fill-opacity:0.933333;stroke-width:0.317224"
       id="rect1306"
       width="8.5491085"
       height="11.522712"
       x="163.17647"
       y="215.95792" />
    <rect
       style="fill:#6c5353;fill-opacity:0.933333;stroke-width:0.264583"
       id="rect1308"
       width="5.947206"
       height="30.85113"
       x="165.40666"
       y="252.38455" />
    <rect
       style="fill:#241c1c;fill-opacity:0.933333;stroke-width:0.264583"
       id="rect1310"
       width="19.328419"
       height="8.9208088"
       x="138.27254"
       y="267.62427" />
    <rect
       style="fill:#483737;fill-opacity:0.933333;stroke-width:0.264583"
       id="rect1364"
       width="20.81522"
       height="7.4340076"
       x="178.78787"
       y="270.22617" />
  </g>
</svg>
