<?xml version="1.0" encoding="UTF-8" standalone="no"?>
<!-- Created with Inkscape (http://www.inkscape.org/) -->

<svg
   width="210mm"
   height="297mm"
   viewBox="0 0 210 297"
   version="1.1"
   id="svg5"
   inkscape:version="1.2.1 (9c6d41e410, 2022-07-14)"
   sodipodi:docname="ZULUS.svg"
   xmlns:inkscape="http://www.inkscape.org/namespaces/inkscape"
   xmlns:sodipodi="http://sodipodi.sourceforge.net/DTD/sodipodi-0.dtd"
   xmlns="http://www.w3.org/2000/svg"
   xmlns:svg="http://www.w3.org/2000/svg">
  <sodipodi:namedview
     id="namedview7"
     pagecolor="#ffffff"
     bordercolor="#000000"
     borderopacity="0.25"
     inkscape:showpageshadow="2"
     inkscape:pageopacity="0.0"
     inkscape:pagecheckerboard="0"
     inkscape:deskcolor="#d1d1d1"
     inkscape:document-units="mm"
     showgrid="false"
     inkscape:zoom="0.35590942"
     inkscape:cx="490.29329"
     inkscape:cy="522.60488"
     inkscape:window-width="1366"
     inkscape:window-height="745"
     inkscape:window-x="-8"
     inkscape:window-y="-8"
     inkscape:window-maximized="1"
     inkscape:current-layer="layer1" />
  <defs
     id="defs2" />
  <g
     inkscape:label="Слой 1"
     inkscape:groupmode="layer"
     id="layer1">
    <path
       style="fill:#ff7f2a;fill-opacity:0.933333;stroke-width:0.264583"
       d="M 22.077876,97.773449 C 178.2,87.260175 181.87964,86.208848 181.87964,86.208848 l 9.98761,44.681412 -180.302648,28.38584 z"
       id="path113" />
    <path
       style="fill:#552200;fill-opacity:0.933333;stroke-width:0.264583"
       d="m 40.476106,101.4531 c 0,-3.679651 3.153981,-44.68142 3.153981,-44.68142 l 18.923895,46.25841 z"
       id="path223" />
    <path
       style="fill:#552200;fill-opacity:0.933333;stroke-width:0.264583"
       d="m 154.01947,113.0177 11.5646,-57.823011 4.20531,56.771681 z"
       id="path279" />
    <path
       style="fill:#552200;fill-opacity:0.933333;stroke-width:0.264583"
       d="m 111.96637,88.837168 3.15398,-19.975221 8.93629,19.975221 z"
       id="path281" />
    <path
       style="fill:#008000;fill-opacity:0.933333;stroke-width:0.264583"
       d="M 26.80885,57.297343 40.476106,34.693804 63.079645,59.4 50.463717,60.976991 62.553982,74.118583 25.757522,78.323894 34.16814,66.233627 Z"
       id="path283" />
    <path
       style="fill:#008000;fill-opacity:0.933333;stroke-width:0.264583"
       d="m 105.13274,69.913274 c 2.62832,-1.576991 9.98761,-8.936283 9.98761,-8.936283 l -8.41062,-1.051327 8.93629,-7.884957 11.5646,14.19292 -6.30797,0.525663 6.30797,6.833629 z"
       id="path339" />
    <path
       style="fill:#008000;fill-opacity:0.933333;stroke-width:0.264583"
       d="m 147.7115,85.157521 c 2.62832,0 34.16814,-1.051328 34.16814,-1.051328 l -13.14159,-9.461947 17.3469,-12.090264 -22.60354,-20.500885 -17.3469,19.975221 13.14159,5.782302 -14.19292,7.884954 z"
       id="path341" />
    <path
       style="fill:#00ffff;fill-opacity:0.933333;stroke-width:0.264583"
       d="M 64.656636,23.654867 C 94.619468,10.513274 72.541592,8.4106193 120.37699,15.244248 168.21239,22.077876 205.53451,27.334514 172.4177,34.693804 139.30088,42.053097 121.95398,47.309735 97.773449,45.732742 73.592919,44.155751 64.656636,23.654867 64.656636,23.654867 Z"
       id="path343" />
    <path
       style="fill:#ff2a2a;fill-opacity:0.933333;stroke-width:0.264583"
       d="m 50.463717,185.55929 0.525663,47.8354 121.95398,-1.05133 -2.10266,-24.18053 -33.64247,-1.57699 -11.5646,-21.55221 z"
       id="path453" />
    <path
       style="fill:#000000;fill-opacity:0.933333;stroke-width:0.307223"
       id="path561"
       sodipodi:type="arc"
       sodipodi:cx="67.022133"
       sodipodi:cy="234.70885"
       sodipodi:rx="14.455752"
       sodipodi:ry="13.930088"
       sodipodi:start="1.4129824"
       sodipodi:end="1.4086958"
       sodipodi:arc-type="slice"
       d="m 69.293994,248.46583 a 14.455752,13.930088 0 0 1 -16.545532,-11.55299 14.455752,13.930088 0 0 1 11.971217,-15.95625 14.455752,13.930088 0 0 1 16.57119,11.51879 14.455752,13.930088 0 0 1 -11.9357,15.98094 l -2.333036,-13.74747 z" />
    <path
       style="fill:#000000;fill-opacity:0.933333;stroke-width:0.307223"
       id="path561-6"
       sodipodi:type="arc"
       sodipodi:cx="153.4938"
       sodipodi:cy="235.49736"
       sodipodi:rx="14.455752"
       sodipodi:ry="13.930088"
       sodipodi:start="1.4129824"
       sodipodi:end="1.4113437"
       sodipodi:arc-type="slice"
       d="m 155.76567,249.25434 a 14.455752,13.930088 0 0 1 -16.54705,-11.5621 14.455752,13.930088 0 0 1 11.99163,-15.95006 14.455752,13.930088 0 0 1 16.55687,11.54903 14.455752,13.930088 0 0 1 -11.97806,15.95953 l -2.29526,-13.75338 z" />
    <path
       style="fill:#008080;fill-opacity:0.933333;stroke-width:0.264583"
       d="m 57.823009,192.91858 33.116814,0.52567 2.102654,16.29557 -32.59115,2.10265 z"
       id="path799" />
    <path
       style="fill:#008080;fill-opacity:0.933333;stroke-width:0.264583"
       d="m 103.03009,194.49557 3.67964,12.61593 23.65487,0.52567 -9.46195,-14.19292 z"
       id="path801" />
    <path
       style="fill:#333333;fill-opacity:0.933333;stroke-width:0.264583"
       d="m 85.157521,199.75221 -1.576991,8.93628 8.936283,0.52567 2.628318,-12.09027 z"
       id="path803" />
    <path
       style="fill:#241c1c;fill-opacity:0.933333;stroke-width:0.264583"
       d="m 141.9292,149.28849 -1.05132,39.95045 56.77168,2.10265 0.52566,-40.47611 z"
       id="path859" />
    <path
       style="fill:#483737;fill-opacity:0.933333;stroke-width:0.264583"
       d="m 166.10973,153.4938 v 36.79646 l 27.33452,0.52567 c 0,0 0.52566,-35.74514 -1.577,-36.2708 -2.10265,-0.52566 -25.75752,-1.05133 -25.75752,-1.05133 z"
       id="path915" />
    <rect
       style="fill:#ac9393;fill-opacity:0.933333;stroke-width:0.264583"
       id="rect1023"
       width="19.975222"
       height="18.923893"
       x="123.0053"
       y="156.64778" />
    <path
       style="fill:#ff0000;fill-opacity:0.933333;stroke-width:0.264583"
       id="path1129"
       sodipodi:type="arc"
       sodipodi:cx="129.31326"
       sodipodi:cy="164.40134"
       sodipodi:rx="3.679646"
       sodipodi:ry="3.5482299"
       sodipodi:start="1.4129824"
       sodipodi:end="1.4086958"
       sodipodi:arc-type="slice"
       d="m 129.89155,167.90547 a 3.679646,3.5482299 0 0 1 -4.21159,-2.94274 3.679646,3.5482299 0 0 1 3.04722,-4.06433 3.679646,3.5482299 0 0 1 4.21812,2.93404 3.679646,3.5482299 0 0 1 -3.03817,4.07061 l -0.59387,-3.50171 z" />
    <path
       style="fill:#ff0000;fill-opacity:0.933333;stroke-width:0.264583"
       id="path1183"
       sodipodi:type="arc"
       sodipodi:cx="137.72389"
       sodipodi:cy="170.8407"
       sodipodi:rx="2.6283185"
       sodipodi:ry="2.5280001"
       sodipodi:start="1.4129824"
       sodipodi:end="1.4086958"
       sodipodi:arc-type="slice"
       d="m 138.13696,173.33728 a 2.6283185,2.5280001 0 0 1 -3.00828,-2.09661 2.6283185,2.5280001 0 0 1 2.17658,-2.8957 2.6283185,2.5280001 0 0 1 3.01295,2.0904 2.6283185,2.5280001 0 0 1 -2.17013,2.90019 l -0.42419,-2.49486 z" />
    <path
       style="fill:#d40000;fill-opacity:0.933333;stroke-width:0.264583"
       d="M 121.42832,184.50796 113.54336,178.2 55.194689,178.98849 v 6.5708 z"
       id="path1239" />
    <rect
       style="fill:#000000;fill-opacity:0.933333;stroke-width:0.264583"
       id="rect1401"
       width="11.564602"
       height="29.174337"
       x="37.322124"
       y="198.17522" />
    <text
       xml:space="preserve"
       style="font-size:18.1593px;text-align:center;text-anchor:middle;fill:#000000;fill-opacity:0.933333;stroke-width:0.486409"
       x="151.97894"
       y="234.3175"
       id="text1509"
       transform="scale(0.85102432,1.1750545)"><tspan
         sodipodi:role="line"
         id="tspan1507"
         style="stroke-width:0.486409"
         x="151.97894"
         y="234.3175">ZULUS</tspan></text>
    <rect
       style="fill:#000000;fill-opacity:0.933333;stroke-width:0.264583"
       id="rect1511"
       width="18.923893"
       height="15.244247"
       x="30.488495"
       y="255.47256" />
    <rect
       style="fill:#000000;fill-opacity:0.933333;stroke-width:0.264583"
       id="rect1513"
       width="25.231857"
       height="14.718584"
       x="5.2566371"
       y="275.44778" />
    <rect
       style="fill:#000000;fill-opacity:0.933333;stroke-width:0.264583"
       id="rect1515"
       width="18.923893"
       height="14.718584"
       x="34.16814"
       y="275.97345" />
    <rect
       style="fill:#000000;fill-opacity:0.933333;stroke-width:0.264583"
       id="rect1517"
       width="22.077875"
       height="18.923893"
       x="62.02832"
       y="270.19113" />
    <text
       xml:space="preserve"
       style="font-size:9.87777px;text-align:center;text-anchor:middle;fill:#000000;fill-opacity:0.933333;stroke-width:0.264583"
       x="60.97699"
       y="171.36636"
       id="text1571"><tspan
         sodipodi:role="line"
         id="tspan1569"
         style="stroke-width:0.264583"
         x="60.97699"
         y="171.36636">FAGOT-DUDUKA</tspan></text>
    <text
       xml:space="preserve"
       style="font-size:9.87777px;text-align:center;text-anchor:middle;fill:#ff0000;fill-opacity:0.933333;stroke-width:0.264583"
       x="172.94336"
       y="264.40884"
       id="text1627"><tspan
         sodipodi:role="line"
         id="tspan1625"
         style="stroke-width:0.264583"
         x="172.94336"
         y="264.40884">OUT</tspan></text>
  </g>
</svg>
